<?xml version="1.0" encoding="UTF-8" standalone="no"?>
<svg width="914px" height="390px" viewBox="0 0 914 390" version="1.1" xmlns="http://www.w3.org/2000/svg" xmlns:xlink="http://www.w3.org/1999/xlink" xmlns:sketch="http://www.bohemiancoding.com/sketch/ns">
    <!-- Generator: Sketch 3.3.3 (12072) - http://www.bohemiancoding.com/sketch -->
    <title>Rectangle 1 + Rectangle 2 + pxn + . Copy</title>
    <desc>Created with Sketch.</desc>
    <defs></defs>
    <g id="Page-2" stroke="none" stroke-width="1" fill="none" fill-rule="evenodd" sketch:type="MSPage">
        <g id="Rectangle-1-+-Rectangle-2-+-pxn-+-.-Copy" sketch:type="MSLayerGroup" transform="translate(-1.000000, 0.000000)">
            <g id="Rectangle-1-+-Rectangle-2-+-pxn-+-." sketch:type="MSShapeGroup">
                <g id="Rectangle-1-+-Rectangle-2-+-pxn">
                    <path d="M22,21 L22,21 L22,341 L875,341 L875,21 L22,21 L22,21 Z M22,0 L22,0 L875,0 L896,0 L896,21 L896,341 L896,362 L875,362 L22,362 L1,362 L1,341 L1,21 L1,0 L22,0 L22,0 Z" id="Shape" fill="#4990E2"></path>
                    <rect id="Rectangle-2" fill="#FFFFFF" x="128.5" y="36" width="50" height="353"></rect>
                    <path d="M332.652082,178.294766 C332.652082,200.070816 330.35147,219.009561 325.750176,235.11157 C321.148883,251.213579 314.783856,264.555044 306.654905,275.136364 C298.525953,285.717684 288.863382,293.615217 277.666902,298.829201 C266.470422,304.043185 254.277177,306.650138 241.086803,306.650138 C224.522147,306.650138 209.79823,302.969734 196.914608,295.608815 C184.030987,288.247897 173.141423,278.433487 164.245589,266.165289 L164.245589,377.498623 L144,389 L144,60.0606061 L164.245589,60.0606061 L164.245589,96.4049587 C173.141423,84.4434664 184.337735,74.5523807 197.834862,66.731405 C211.331989,58.9104292 226.669404,55 243.847565,55 C256.731187,55 268.617683,57.3769276 279.50741,62.130854 C290.397137,66.8847804 299.75296,74.2455884 307.575159,84.2134986 C315.397357,94.1814089 321.532323,106.986148 325.98024,122.628099 C330.428157,138.270051 332.652082,156.825421 332.652082,178.294766 L332.652082,178.294766 Z M311.946366,178.754821 C311.946366,142.563639 305.427965,115.88071 292.390967,98.7052342 C279.353969,81.529758 261.485882,72.9421488 238.786168,72.9421488 C223.448524,72.9421488 209.491477,77.0059281 196.914608,85.1336088 C184.33774,93.2612895 173.448176,103.919126 164.245589,117.107438 L164.245589,243.62259 C172.527917,256.504197 183.18742,267.238708 196.224418,275.826446 C209.261415,284.414184 223.755272,288.707989 239.706422,288.707989 C262.712888,288.707989 280.504289,279.737004 293.081157,261.794766 C305.658026,243.852527 311.946366,216.172823 311.946366,178.754821 L311.946366,178.754821 Z M525.445307,301.589532 L460.107269,192.096419 L394.309104,301.589532 L372.683133,301.589532 L449.984474,175.534435 L379.585039,60.0606061 L402.131263,60.0606061 L461.027523,158.052342 L519.923783,60.0606061 L541.549753,60.0606061 L471.150318,174.614325 L548.451658,301.589532 L525.445307,301.589532 Z M775.754411,301.589532 L775.754411,157.132231 C775.754411,127.688558 769.619445,106.29621 757.34933,92.9545455 C745.079214,79.612881 728.054684,72.9421488 706.275229,72.9421488 C697.379396,72.9421488 688.63707,74.3989753 680.047989,77.3126722 C671.458908,80.226369 663.713514,84.9035491 656.811574,91.3443526 C649.909634,97.7851562 644.311478,106.372765 640.016937,117.107438 C635.722397,127.842111 633.575159,141.030225 633.575159,156.672176 L633.575159,301.589532 L613.32957,301.589532 L613.32957,60.0606061 L633.575159,60.0606061 L633.575159,101.00551 C639.710217,86.2836729 649.449475,74.9357607 662.793225,66.9614325 C676.136976,58.9871043 692.011199,55 710.416373,55 C723.299994,55 734.956429,56.840202 745.386027,60.5206612 C755.815625,64.2011203 764.788012,70.0284266 772.303458,78.0027548 C779.818904,85.977083 785.647121,96.174869 789.788285,108.596419 C793.929449,121.017968 796,135.96961 796,153.451791 L796,301.589532 L775.754411,301.589532 Z" id="pxn" stroke="#FFFFFF" fill="#4990E2"></path>
                </g>
                <path d="M904.782,285.832 C904.782,290.888025 902.965018,295.153983 899.331,298.63 C895.696982,302.106017 891.510024,303.844 886.77,303.844 C881.713975,303.844 877.448017,302.106017 873.972,298.63 C870.495983,295.153983 868.758,290.888025 868.758,285.832 C868.758,280.775975 870.495983,276.352019 873.972,272.56 C877.448017,268.767981 881.713975,266.872 886.77,266.872 C891.510024,266.872 895.696982,268.767981 899.331,272.56 C902.965018,276.352019 904.782,280.775975 904.782,285.832 L904.782,285.832 Z" id="." stroke="#FFFFFF" stroke-width="10" fill="#4990E2"></path>
            </g>
        </g>
    </g>
</svg>