<?xml version="1.0" encoding="UTF-8" standalone="no"?>
<svg width="948px" height="421px" viewBox="0 0 948 421" version="1.1" xmlns="http://www.w3.org/2000/svg" xmlns:xlink="http://www.w3.org/1999/xlink" xmlns:sketch="http://www.bohemiancoding.com/sketch/ns">
    <!-- Generator: Sketch 3.3.3 (12072) - http://www.bohemiancoding.com/sketch -->
    <title>pxn</title>
    <desc>Created with Sketch.</desc>
    <defs></defs>
    <g id="Page-2" stroke="none" stroke-width="1" fill="none" fill-rule="evenodd" sketch:type="MSPage">
        <g id="pxn" sketch:type="MSArtboardGroup" fill="#000000">
            <path d="M203.5,389 L900,389 L921,389 L921,368 L921,48 L921,27 L900,27 L47,27 L26,27 L26,48 L26,368 L26,389 L47,389 L153.5,389 L153.5,368 L47,368 L47,48 L900,48 L900,368 L203.5,368 L203.5,389 Z" id="Path" sketch:type="MSShapeGroup"></path>
            <path d="M357.652082,205.294766 C357.652082,227.070816 355.35147,246.009561 350.750176,262.11157 C346.148883,278.213579 339.783856,291.555044 331.654905,302.136364 C323.525953,312.717684 313.863382,320.615217 302.666902,325.829201 C291.470422,331.043185 279.277177,333.650138 266.086803,333.650138 C249.522147,333.650138 234.79823,329.969734 221.914608,322.608815 C209.030987,315.247897 198.141423,305.433487 189.245589,293.165289 L189.245589,404.498623 L169,416 L169,87.0606061 L189.245589,87.0606061 L189.245589,123.404959 C198.141423,111.443466 209.337735,101.552381 222.834862,93.731405 C236.331989,85.9104292 251.669404,82 268.847565,82 C281.731187,82 293.617683,84.3769276 304.50741,89.130854 C315.397137,93.8847804 324.75296,101.245588 332.575159,111.213499 C340.397357,121.181409 346.532323,133.986148 350.98024,149.628099 C355.428157,165.270051 357.652082,183.825421 357.652082,205.294766 L357.652082,205.294766 Z M336.946366,205.754821 C336.946366,169.563639 330.427965,142.88071 317.390967,125.705234 C304.353969,108.529758 286.485882,99.9421488 263.786168,99.9421488 C248.448524,99.9421488 234.491477,104.005928 221.914608,112.133609 C209.33774,120.261289 198.448176,130.919126 189.245589,144.107438 L189.245589,270.62259 C197.527917,283.504197 208.18742,294.238708 221.224418,302.826446 C234.261415,311.414184 248.755272,315.707989 264.706422,315.707989 C287.712888,315.707989 305.504289,306.737004 318.081157,288.794766 C330.658026,270.852527 336.946366,243.172823 336.946366,205.754821 L336.946366,205.754821 Z M550.445307,328.589532 L485.107269,219.096419 L419.309104,328.589532 L397.683133,328.589532 L474.984474,202.534435 L404.585039,87.0606061 L427.131263,87.0606061 L486.027523,185.052342 L544.923783,87.0606061 L566.549753,87.0606061 L496.150318,201.614325 L573.451658,328.589532 L550.445307,328.589532 Z M800.754411,328.589532 L800.754411,184.132231 C800.754411,154.688558 794.619445,133.29621 782.34933,119.954545 C770.079214,106.612881 753.054684,99.9421488 731.275229,99.9421488 C722.379396,99.9421488 713.63707,101.398975 705.047989,104.312672 C696.458908,107.226369 688.713514,111.903549 681.811574,118.344353 C674.909634,124.785156 669.311478,133.372765 665.016937,144.107438 C660.722397,154.842111 658.575159,168.030225 658.575159,183.672176 L658.575159,328.589532 L638.32957,328.589532 L638.32957,87.0606061 L658.575159,87.0606061 L658.575159,128.00551 C664.710217,113.283673 674.449475,101.935761 687.793225,93.9614325 C701.136976,85.9871043 717.011199,82 735.416373,82 C748.299994,82 759.956429,83.840202 770.386027,87.5206612 C780.815625,91.2011203 789.788012,97.0284266 797.303458,105.002755 C804.818904,112.977083 810.647121,123.174869 814.788285,135.596419 C818.929449,148.017968 821,162.96961 821,180.451791 L821,328.589532 L800.754411,328.589532 Z" sketch:type="MSShapeGroup"></path>
            <path d="M924.331,325.63 C920.696982,329.106017 916.510024,330.844 911.77,330.844 C906.713975,330.844 902.448017,329.106017 898.972,325.63 C895.495983,322.153983 893.758,317.888025 893.758,312.832 C893.758,307.775975 895.495983,303.352019 898.972,299.56 C902.448017,295.767981 906.713975,293.872 911.77,293.872 C916.510024,293.872 920.696982,295.767981 924.331,299.56 C927.965018,303.352019 929.782,307.775975 929.782,312.832 C929.782,317.888025 927.965018,322.153983 924.331,325.63 Z" id="." stroke="#FFFFFF" stroke-width="10" sketch:type="MSShapeGroup"></path>
        </g>
    </g>
</svg>